name Run_20002_GRF.mot
datacolumns 19
datarows 28
range 0.962 0.989
endheader
time	     ground_force_vx	     ground_force_vy	     ground_force_vz	     ground_force_px	     ground_force_py	     ground_force_pz	   l_ground_force_vx	   l_ground_force_vy	   l_ground_force_vz	   l_ground_force_px	   l_ground_force_py	   l_ground_force_pz	     ground_torque_x	     ground_torque_y	     ground_torque_z	   l_ground_torque_x	   l_ground_torque_y	   l_ground_torque_z	
0.962	          0.00000000	          0.00000000	          0.00000000	          0.00000000	          0.00000000	          0.00000000	          0.00000000	          0.00000000	          0.00000000	          0.00000000	          0.00000000	          0.00000000	          0.00000000	          0.00000000	          0.00000000	          0.00000000	          0.00000000	          0.00000000	
0.963	        -13.44846200	         28.47097400	          1.75526300	          0.98191800	          0.00000000	         -0.28756500	          0.00000000	          0.00000000	          0.00000000	          0.00000000	          0.00000000	          0.00000000	          0.00000000	          0.71969900	          0.00000000	          0.00000000	          0.00000000	          0.00000000	
0.964	        -14.44544500	         29.51000200	          1.49110800	          0.99213100	          0.00000000	         -0.28423400	          0.00000000	          0.00000000	          0.00000000	          0.00000000	          0.00000000	          0.00000000	          0.00000000	          0.75196700	          0.00000000	          0.00000000	          0.00000000	          0.00000000	
0.965	        -15.42819900	         30.76298700	          1.20484300	          1.00202300	          0.00000000	         -0.28118500	          0.00000000	          0.00000000	          0.00000000	          0.00000000	          0.00000000	          0.00000000	          0.00000000	          0.78759300	          0.00000000	          0.00000000	          0.00000000	          0.00000000	
0.966	        -16.39292100	         32.24733400	          0.89578400	          1.01151700	          0.00000000	         -0.27844600	          0.00000000	          0.00000000	          0.00000000	          0.00000000	          0.00000000	          0.00000000	          0.00000000	          0.82650400	          0.00000000	          0.00000000	          0.00000000	          0.00000000	
0.967	        -17.33511500	         33.98176200	          0.56328800	          1.02054200	          0.00000000	         -0.27603700	          0.00000000	          0.00000000	          0.00000000	          0.00000000	          0.00000000	          0.00000000	          0.00000000	          0.86861300	          0.00000000	          0.00000000	          0.00000000	          0.00000000	
0.968	        -18.24947200	         35.98627100	          0.20676200	          1.02904300	          0.00000000	         -0.27396700	          0.00000000	          0.00000000	          0.00000000	          0.00000000	          0.00000000	          0.00000000	          0.00000000	          0.91382100	          0.00000000	          0.00000000	          0.00000000	          0.00000000	
0.969	        -19.12976600	         38.28207400	         -0.17432900	          1.03697400	          0.00000000	         -0.27223400	          0.00000000	          0.00000000	          0.00000000	          0.00000000	          0.00000000	          0.00000000	          0.00000000	          0.96201100	          0.00000000	          0.00000000	          0.00000000	          0.00000000	
0.97	        -19.96876700	         40.89152500	         -0.58045100	          1.04430400	          0.00000000	         -0.27082800	          0.00000000	          0.00000000	          0.00000000	          0.00000000	          0.00000000	          0.00000000	          0.00000000	          1.01305500	          0.00000000	          0.00000000	          0.00000000	          0.00000000	
0.971	        -20.75816500	         43.83802400	         -1.01198800	          1.05101300	          0.00000000	         -0.26972900	          0.00000000	          0.00000000	          0.00000000	          0.00000000	          0.00000000	          0.00000000	          0.00000000	          1.06680900	          0.00000000	          0.00000000	          0.00000000	          0.00000000	
0.972	        -21.48853300	         47.14590500	         -1.46923500	          1.05709600	          0.00000000	         -0.26891600	          0.00000000	          0.00000000	          0.00000000	          0.00000000	          0.00000000	          0.00000000	          0.00000000	          1.12311700	          0.00000000	          0.00000000	          0.00000000	          0.00000000	
0.973	        -22.14932300	         50.84032100	         -1.95237900	          1.06255500	          0.00000000	         -0.26835800	          0.00000000	          0.00000000	          0.00000000	          0.00000000	          0.00000000	          0.00000000	          0.00000000	          1.18180800	          0.00000000	          0.00000000	          0.00000000	          0.00000000	
0.974	        -22.72892400	         54.94712800	         -2.46148900	          1.06740500	          0.00000000	         -0.26802800	          0.00000000	          0.00000000	          0.00000000	          0.00000000	          0.00000000	          0.00000000	          0.00000000	          1.24270000	          0.00000000	          0.00000000	          0.00000000	          0.00000000	
0.975	        -23.21477700	         59.49276000	         -2.99650500	          1.07166400	          0.00000000	         -0.26789400	          0.00000000	          0.00000000	          0.00000000	          0.00000000	          0.00000000	          0.00000000	          0.00000000	          1.30559600	          0.00000000	          0.00000000	          0.00000000	          0.00000000	
0.976	        -23.59354200	         64.50408200	         -3.55722300	          1.07535900	          0.00000000	         -0.26792700	          0.00000000	          0.00000000	          0.00000000	          0.00000000	          0.00000000	          0.00000000	          0.00000000	          1.37029000	          0.00000000	          0.00000000	          0.00000000	          0.00000000	
0.977	        -23.85135300	         70.00827000	         -4.14328200	          1.07851900	          0.00000000	         -0.26809800	          0.00000000	          0.00000000	          0.00000000	          0.00000000	          0.00000000	          0.00000000	          0.00000000	          1.43656100	          0.00000000	          0.00000000	          0.00000000	          0.00000000	
0.978	        -23.97411900	         76.03266100	         -4.75415000	          1.08117400	          0.00000000	         -0.26838200	          0.00000000	          0.00000000	          0.00000000	          0.00000000	          0.00000000	          0.00000000	          0.00000000	          1.50418300	          0.00000000	          0.00000000	          0.00000000	          0.00000000	
0.979	        -23.94790800	         82.60459900	         -5.38911500	          1.08335700	          0.00000000	         -0.26875500	          0.00000000	          0.00000000	          0.00000000	          0.00000000	          0.00000000	          0.00000000	          0.00000000	          1.57291600	          0.00000000	          0.00000000	          0.00000000	          0.00000000	
0.98	        -23.75935900	         89.75126600	         -6.04727200	          1.08510200	          0.00000000	         -0.26919800	          0.00000000	          0.00000000	          0.00000000	          0.00000000	          0.00000000	          0.00000000	          0.00000000	          1.64251200	          0.00000000	          0.00000000	          0.00000000	          0.00000000	
0.981	        -23.39616200	         97.49951200	         -6.72751200	          1.08644200	          0.00000000	         -0.26969300	          0.00000000	          0.00000000	          0.00000000	          0.00000000	          0.00000000	          0.00000000	          0.00000000	          1.71271700	          0.00000000	          0.00000000	          0.00000000	          0.00000000	
0.982	        -22.84754400	        105.87563300	         -7.42851300	          1.08740700	          0.00000000	         -0.27022600	          0.00000000	          0.00000000	          0.00000000	          0.00000000	          0.00000000	          0.00000000	          0.00000000	          1.78327100	          0.00000000	          0.00000000	          0.00000000	          0.00000000	
0.983	        -22.10476900	        114.90512100	         -8.14873200	          1.08803100	          0.00000000	         -0.27078400	          0.00000000	          0.00000000	          0.00000000	          0.00000000	          0.00000000	          0.00000000	          0.00000000	          1.85390500	          0.00000000	          0.00000000	          0.00000000	          0.00000000	
0.984	        -21.16163100	        124.61243400	         -8.88640100	          1.08834300	          0.00000000	         -0.27136000	          0.00000000	          0.00000000	          0.00000000	          0.00000000	          0.00000000	          0.00000000	          0.00000000	          1.92435000	          0.00000000	          0.00000000	          0.00000000	          0.00000000	
0.985	        -20.01490200	        135.02067600	         -9.63952100	          1.08837400	          0.00000000	         -0.27194400	          0.00000000	          0.00000000	          0.00000000	          0.00000000	          0.00000000	          0.00000000	          0.00000000	          1.99433100	          0.00000000	          0.00000000	          0.00000000	          0.00000000	
0.986	        -18.66474000	        146.15124500	        -10.40586200	          1.08815400	          0.00000000	         -0.27253200	          0.00000000	          0.00000000	          0.00000000	          0.00000000	          0.00000000	          0.00000000	          0.00000000	          2.06357500	          0.00000000	          0.00000000	          0.00000000	          0.00000000	
0.987	        -17.11501500	        158.02348300	        -11.18296300	          1.08771100	          0.00000000	         -0.27311800	          0.00000000	          0.00000000	          0.00000000	          0.00000000	          0.00000000	          0.00000000	          0.00000000	          2.13180400	          0.00000000	          0.00000000	          0.00000000	          0.00000000	
0.988	        -15.37356000	        170.65431200	        -11.96814400	          1.08707300	          0.00000000	         -0.27370000	          0.00000000	          0.00000000	          0.00000000	          0.00000000	          0.00000000	          0.00000000	          0.00000000	          2.19874500	          0.00000000	          0.00000000	          0.00000000	          0.00000000	
0.989	        -13.45230500	        184.05767800	        -12.75850800	          1.08626800	          0.00000000	         -0.27427600	          0.00000000	          0.00000000	          0.00000000	          0.00000000	          0.00000000	          0.00000000	          0.00000000	          2.26412800	          0.00000000	          0.00000000	          0.00000000	          0.00000000	
